<svg width="99" height="17" viewBox="0 0 99 17" fill="none" xmlns="http://www.w3.org/2000/svg">
<path d="M5.012 10.052H3.444V14H1.19V4.2H3.444V8.162H5.068L7.644 4.2H10.038L6.832 8.932L10.136 14H7.56L5.012 10.052ZM16.8335 14.168C15.8161 14.168 14.8968 13.9487 14.0755 13.51C13.2635 13.0713 12.6241 12.4693 12.1575 11.704C11.7001 10.9293 11.4715 10.0613 11.4715 9.1C11.4715 8.13867 11.7001 7.27533 12.1575 6.51C12.6241 5.73533 13.2635 5.12867 14.0755 4.69C14.8968 4.25133 15.8161 4.032 16.8335 4.032C17.8508 4.032 18.7655 4.25133 19.5775 4.69C20.3895 5.12867 21.0288 5.73533 21.4955 6.51C21.9621 7.27533 22.1955 8.13867 22.1955 9.1C22.1955 10.0613 21.9621 10.9293 21.4955 11.704C21.0288 12.4693 20.3895 13.0713 19.5775 13.51C18.7655 13.9487 17.8508 14.168 16.8335 14.168ZM16.8335 12.236C17.4121 12.236 17.9348 12.1053 18.4015 11.844C18.8681 11.5733 19.2321 11.2 19.4935 10.724C19.7641 10.248 19.8995 9.70667 19.8995 9.1C19.8995 8.49333 19.7641 7.952 19.4935 7.476C19.2321 7 18.8681 6.63133 18.4015 6.37C17.9348 6.09933 17.4121 5.964 16.8335 5.964C16.2548 5.964 15.7321 6.09933 15.2655 6.37C14.7988 6.63133 14.4301 7 14.1595 7.476C13.8981 7.952 13.7675 8.49333 13.7675 9.1C13.7675 9.70667 13.8981 10.248 14.1595 10.724C14.4301 11.2 14.7988 11.5733 15.2655 11.844C15.7321 12.1053 16.2548 12.236 16.8335 12.236ZM33.8606 14L33.8466 8.134L30.9626 12.964H29.9546L27.0706 8.246V14H24.9426V4.2H26.8186L30.4866 10.29L34.0986 4.2H35.9746L35.9886 14H33.8606ZM46.0591 11.9H41.5091L40.6411 14H38.3171L42.6851 4.2H44.9251L49.3071 14H46.9271L46.0591 11.9ZM45.3451 10.178L43.7911 6.426L42.2371 10.178H45.3451ZM60.5947 4.2V14H58.3267V9.982H53.8747V14H51.6067V4.2H53.8747V8.064H58.3267V4.2H60.5947ZM74.0897 12.152V16.03H71.9897V14H65.0737V16.03H62.9737L62.9877 12.152H63.3797C63.9677 12.1333 64.383 11.704 64.6257 10.864C64.8683 10.024 65.0177 8.82467 65.0737 7.266L65.1857 4.2H72.7177V12.152H74.0897ZM67.0757 7.476C67.029 8.64267 66.931 9.62267 66.7817 10.416C66.6323 11.2 66.4037 11.7787 66.0957 12.152H70.4777V6.048H67.1177L67.0757 7.476ZM83.3345 11.9H78.7845L77.9165 14H75.5925L79.9605 4.2H82.2005L86.5825 14H84.2025L83.3345 11.9ZM82.6205 10.178L81.0665 6.426L79.5125 10.178H82.6205Z" fill="#24A3FF"/>
<path d="M90.5 4L95 8.5L90.5 13" stroke="#24A3FF" stroke-width="2"/>
</svg>
