<svg width="136" height="17" viewBox="0 0 136 17" fill="none" xmlns="http://www.w3.org/2000/svg">
<path d="M5.404 4.2C6.272 4.2 7.02333 4.34467 7.658 4.634C8.302 4.92333 8.79667 5.334 9.142 5.866C9.48733 6.398 9.66 7.028 9.66 7.756C9.66 8.47467 9.48733 9.10467 9.142 9.646C8.79667 10.178 8.302 10.5887 7.658 10.878C7.02333 11.158 6.272 11.298 5.404 11.298H3.43V14H1.162V4.2H5.404ZM5.278 9.45C5.95933 9.45 6.47733 9.30533 6.832 9.016C7.18667 8.71733 7.364 8.29733 7.364 7.756C7.364 7.20533 7.18667 6.78533 6.832 6.496C6.47733 6.19733 5.95933 6.048 5.278 6.048H3.43V9.45H5.278ZM16.5922 14.168C15.1922 14.168 14.1002 13.7807 13.3162 13.006C12.5415 12.2313 12.1542 11.1253 12.1542 9.688V4.2H14.4222V9.604C14.4222 11.3587 15.1502 12.236 16.6062 12.236C17.3155 12.236 17.8568 12.026 18.2302 11.606C18.6035 11.1767 18.7902 10.5093 18.7902 9.604V4.2H21.0302V9.688C21.0302 11.1253 20.6382 12.2313 19.8542 13.006C19.0795 13.7807 17.9922 14.168 16.5922 14.168ZM31.4674 8.904C32.0274 9.08133 32.466 9.38 32.7834 9.8C33.1007 10.2107 33.2594 10.7193 33.2594 11.326C33.2594 12.1847 32.9234 12.8473 32.2514 13.314C31.5887 13.7713 30.618 14 29.3394 14H24.2714V4.2H29.0594C30.254 4.2 31.1687 4.42867 31.8034 4.886C32.4474 5.34333 32.7694 5.964 32.7694 6.748C32.7694 7.224 32.6527 7.64867 32.4194 8.022C32.1954 8.39533 31.878 8.68933 31.4674 8.904ZM26.5254 5.908V8.218H28.7794C29.3394 8.218 29.764 8.12 30.0534 7.924C30.3427 7.728 30.4874 7.43867 30.4874 7.056C30.4874 6.67333 30.3427 6.38867 30.0534 6.202C29.764 6.006 29.3394 5.908 28.7794 5.908H26.5254ZM29.1714 12.292C29.7687 12.292 30.2167 12.194 30.5154 11.998C30.8234 11.802 30.9774 11.4987 30.9774 11.088C30.9774 10.276 30.3754 9.87 29.1714 9.87H26.5254V12.292H29.1714ZM35.9765 4.2H38.2445V12.152H43.1585V14H35.9765V4.2ZM45.4257 4.2H47.6937V14H45.4257V4.2ZM55.7094 14.168C54.7108 14.168 53.8054 13.9533 52.9934 13.524C52.1908 13.0853 51.5561 12.4833 51.0894 11.718C50.6321 10.9433 50.4034 10.0707 50.4034 9.1C50.4034 8.12933 50.6321 7.26133 51.0894 6.496C51.5561 5.72133 52.1908 5.11933 52.9934 4.69C53.8054 4.25133 54.7154 4.032 55.7234 4.032C56.5728 4.032 57.3381 4.18133 58.0194 4.48C58.7101 4.77867 59.2888 5.208 59.7554 5.768L58.2994 7.112C57.6368 6.34667 56.8154 5.964 55.8354 5.964C55.2288 5.964 54.6874 6.09933 54.2114 6.37C53.7354 6.63133 53.3621 7 53.0914 7.476C52.8301 7.952 52.6994 8.49333 52.6994 9.1C52.6994 9.70667 52.8301 10.248 53.0914 10.724C53.3621 11.2 53.7354 11.5733 54.2114 11.844C54.6874 12.1053 55.2288 12.236 55.8354 12.236C56.8154 12.236 57.6368 11.8487 58.2994 11.074L59.7554 12.418C59.2888 12.9873 58.7101 13.4213 58.0194 13.72C57.3288 14.0187 56.5588 14.168 55.7094 14.168ZM68.5496 11.9H63.9996L63.1316 14H60.8076L65.1756 4.2H67.4156L71.7976 14H69.4176L68.5496 11.9ZM67.8356 10.178L66.2816 6.426L64.7276 10.178H67.8356ZM75.3522 6.048H72.2162V4.2H80.7562V6.048H77.6202V14H75.3522V6.048ZM82.9765 4.2H85.2445V14H82.9765V4.2ZM93.3162 14.168C92.2989 14.168 91.3795 13.9487 90.5582 13.51C89.7462 13.0713 89.1069 12.4693 88.6402 11.704C88.1829 10.9293 87.9542 10.0613 87.9542 9.1C87.9542 8.13867 88.1829 7.27533 88.6402 6.51C89.1069 5.73533 89.7462 5.12867 90.5582 4.69C91.3795 4.25133 92.2989 4.032 93.3162 4.032C94.3335 4.032 95.2482 4.25133 96.0602 4.69C96.8722 5.12867 97.5115 5.73533 97.9782 6.51C98.4449 7.27533 98.6782 8.13867 98.6782 9.1C98.6782 10.0613 98.4449 10.9293 97.9782 11.704C97.5115 12.4693 96.8722 13.0713 96.0602 13.51C95.2482 13.9487 94.3335 14.168 93.3162 14.168ZM93.3162 12.236C93.8949 12.236 94.4175 12.1053 94.8842 11.844C95.3509 11.5733 95.7149 11.2 95.9762 10.724C96.2469 10.248 96.3822 9.70667 96.3822 9.1C96.3822 8.49333 96.2469 7.952 95.9762 7.476C95.7149 7 95.3509 6.63133 94.8842 6.37C94.4175 6.09933 93.8949 5.964 93.3162 5.964C92.7375 5.964 92.2149 6.09933 91.7482 6.37C91.2815 6.63133 90.9129 7 90.6422 7.476C90.3809 7.952 90.2502 8.49333 90.2502 9.1C90.2502 9.70667 90.3809 10.248 90.6422 10.724C90.9129 11.2 91.2815 11.5733 91.7482 11.844C92.2149 12.1053 92.7375 12.236 93.3162 12.236ZM110.371 4.2V14H108.509L103.623 8.05V14H101.383V4.2H103.259L108.131 10.15V4.2H110.371ZM116.909 14.168C116.135 14.168 115.383 14.0653 114.655 13.86C113.937 13.6453 113.358 13.37 112.919 13.034L113.689 11.326C114.109 11.634 114.609 11.8813 115.187 12.068C115.766 12.2547 116.345 12.348 116.923 12.348C117.567 12.348 118.043 12.2547 118.351 12.068C118.659 11.872 118.813 11.6153 118.813 11.298C118.813 11.0647 118.72 10.8733 118.533 10.724C118.356 10.5653 118.123 10.4393 117.833 10.346C117.553 10.2527 117.171 10.15 116.685 10.038C115.939 9.86067 115.327 9.68333 114.851 9.506C114.375 9.32867 113.965 9.044 113.619 8.652C113.283 8.26 113.115 7.73733 113.115 7.084C113.115 6.51467 113.269 6.00133 113.577 5.544C113.885 5.07733 114.347 4.70867 114.963 4.438C115.589 4.16733 116.349 4.032 117.245 4.032C117.871 4.032 118.482 4.10667 119.079 4.256C119.677 4.40533 120.199 4.62 120.647 4.9L119.947 6.622C119.042 6.10867 118.137 5.852 117.231 5.852C116.597 5.852 116.125 5.95467 115.817 6.16C115.519 6.36533 115.369 6.636 115.369 6.972C115.369 7.308 115.542 7.56 115.887 7.728C116.242 7.88667 116.779 8.04533 117.497 8.204C118.244 8.38133 118.855 8.55867 119.331 8.736C119.807 8.91333 120.213 9.19333 120.549 9.576C120.895 9.95867 121.067 10.4767 121.067 11.13C121.067 11.69 120.909 12.2033 120.591 12.67C120.283 13.1273 119.817 13.4913 119.191 13.762C118.566 14.0327 117.805 14.168 116.909 14.168Z" fill="#24A3FF"/>
<path d="M127.5 4L132 8.5L127.5 13" stroke="#24A3FF" stroke-width="2"/>
</svg>
