<svg width="94" height="17" viewBox="0 0 94 17" fill="none" xmlns="http://www.w3.org/2000/svg">
<path d="M4.382 14.168C3.60733 14.168 2.856 14.0653 2.128 13.86C1.40933 13.6453 0.830667 13.37 0.392 13.034L1.162 11.326C1.582 11.634 2.08133 11.8813 2.66 12.068C3.23867 12.2547 3.81733 12.348 4.396 12.348C5.04 12.348 5.516 12.2547 5.824 12.068C6.132 11.872 6.286 11.6153 6.286 11.298C6.286 11.0647 6.19267 10.8733 6.006 10.724C5.82867 10.5653 5.59533 10.4393 5.306 10.346C5.026 10.2527 4.64333 10.15 4.158 10.038C3.41133 9.86067 2.8 9.68333 2.324 9.506C1.848 9.32867 1.43733 9.044 1.092 8.652C0.756 8.26 0.588 7.73733 0.588 7.084C0.588 6.51467 0.742 6.00133 1.05 5.544C1.358 5.07733 1.82 4.70867 2.436 4.438C3.06133 4.16733 3.822 4.032 4.718 4.032C5.34333 4.032 5.95467 4.10667 6.552 4.256C7.14933 4.40533 7.672 4.62 8.12 4.9L7.42 6.622C6.51467 6.10867 5.60933 5.852 4.704 5.852C4.06933 5.852 3.598 5.95467 3.29 6.16C2.99133 6.36533 2.842 6.636 2.842 6.972C2.842 7.308 3.01467 7.56 3.36 7.728C3.71467 7.88667 4.25133 8.04533 4.97 8.204C5.71667 8.38133 6.328 8.55867 6.804 8.736C7.28 8.91333 7.686 9.19333 8.022 9.576C8.36733 9.95867 8.54 10.4767 8.54 11.13C8.54 11.69 8.38133 12.2033 8.064 12.67C7.756 13.1273 7.28933 13.4913 6.664 13.762C6.03867 14.0327 5.278 14.168 4.382 14.168ZM18.6777 12.18V14H11.0897V4.2H18.4957V6.02H13.3437V8.148H17.8937V9.912H13.3437V12.18H18.6777ZM27.7263 14L25.8363 11.27H25.7243H23.7503V14H21.4823V4.2H25.7243C26.5923 4.2 27.3436 4.34467 27.9783 4.634C28.6223 4.92333 29.117 5.334 29.4623 5.866C29.8076 6.398 29.9803 7.028 29.9803 7.756C29.9803 8.484 29.803 9.114 29.4483 9.646C29.103 10.1687 28.6083 10.57 27.9643 10.85L30.1623 14H27.7263ZM27.6843 7.756C27.6843 7.20533 27.507 6.78533 27.1523 6.496C26.7976 6.19733 26.2796 6.048 25.5983 6.048H23.7503V9.464H25.5983C26.2796 9.464 26.7976 9.31467 27.1523 9.016C27.507 8.71733 27.6843 8.29733 27.6843 7.756ZM42.1992 4.2L37.9572 14H35.7172L31.4892 4.2H33.9392L36.9212 11.2L39.9452 4.2H42.1992ZM44.0175 4.2H46.2855V14H44.0175V4.2ZM54.3012 14.168C53.3026 14.168 52.3972 13.9533 51.5852 13.524C50.7826 13.0853 50.1479 12.4833 49.6812 11.718C49.2239 10.9433 48.9952 10.0707 48.9952 9.1C48.9952 8.12933 49.2239 7.26133 49.6812 6.496C50.1479 5.72133 50.7826 5.11933 51.5852 4.69C52.3972 4.25133 53.3072 4.032 54.3152 4.032C55.1646 4.032 55.9299 4.18133 56.6112 4.48C57.3019 4.77867 57.8806 5.208 58.3472 5.768L56.8912 7.112C56.2286 6.34667 55.4072 5.964 54.4272 5.964C53.8206 5.964 53.2792 6.09933 52.8032 6.37C52.3272 6.63133 51.9539 7 51.6832 7.476C51.4219 7.952 51.2912 8.49333 51.2912 9.1C51.2912 9.70667 51.4219 10.248 51.6832 10.724C51.9539 11.2 52.3272 11.5733 52.8032 11.844C53.2792 12.1053 53.8206 12.236 54.4272 12.236C55.4072 12.236 56.2286 11.8487 56.8912 11.074L58.3472 12.418C57.8806 12.9873 57.3019 13.4213 56.6112 13.72C55.9206 14.0187 55.1506 14.168 54.3012 14.168ZM68.4668 12.18V14H60.8788V4.2H68.2848V6.02H63.1328V8.148H67.6828V9.912H63.1328V12.18H68.4668ZM74.4914 14.168C73.7167 14.168 72.9654 14.0653 72.2374 13.86C71.5187 13.6453 70.94 13.37 70.5014 13.034L71.2714 11.326C71.6914 11.634 72.1907 11.8813 72.7694 12.068C73.348 12.2547 73.9267 12.348 74.5054 12.348C75.1494 12.348 75.6254 12.2547 75.9334 12.068C76.2414 11.872 76.3954 11.6153 76.3954 11.298C76.3954 11.0647 76.302 10.8733 76.1154 10.724C75.938 10.5653 75.7047 10.4393 75.4154 10.346C75.1354 10.2527 74.7527 10.15 74.2674 10.038C73.5207 9.86067 72.9094 9.68333 72.4334 9.506C71.9574 9.32867 71.5467 9.044 71.2014 8.652C70.8654 8.26 70.6974 7.73733 70.6974 7.084C70.6974 6.51467 70.8514 6.00133 71.1594 5.544C71.4674 5.07733 71.9294 4.70867 72.5454 4.438C73.1707 4.16733 73.9314 4.032 74.8274 4.032C75.4527 4.032 76.064 4.10667 76.6614 4.256C77.2587 4.40533 77.7814 4.62 78.2294 4.9L77.5294 6.622C76.624 6.10867 75.7187 5.852 74.8134 5.852C74.1787 5.852 73.7074 5.95467 73.3994 6.16C73.1007 6.36533 72.9514 6.636 72.9514 6.972C72.9514 7.308 73.124 7.56 73.4694 7.728C73.824 7.88667 74.3607 8.04533 75.0794 8.204C75.826 8.38133 76.4374 8.55867 76.9134 8.736C77.3894 8.91333 77.7954 9.19333 78.1314 9.576C78.4767 9.95867 78.6494 10.4767 78.6494 11.13C78.6494 11.69 78.4907 12.2033 78.1734 12.67C77.8654 13.1273 77.3987 13.4913 76.7734 13.762C76.148 14.0327 75.3874 14.168 74.4914 14.168Z" fill="#F0145A"/>
<path d="M85.5 4L90 8.5L85.5 13" stroke="#F0145A" stroke-width="2"/>
</svg>
